<?xml version="1.0" encoding="UTF-8" standalone="no"?>
<svg width="31px" height="32px" viewBox="0 0 31 32" version="1.1" xmlns="http://www.w3.org/2000/svg" xmlns:xlink="http://www.w3.org/1999/xlink">
    <!-- Generator: Sketch 47 (45396) - http://www.bohemiancoding.com/sketch -->
    <title>Icon</title>
    <desc>Created with Sketch.</desc>
    <defs></defs>
    <g id="Symbols" stroke="none" stroke-width="1" fill="none" fill-rule="evenodd">
        <g id="AOE-Submenu" transform="translate(-920.000000, -14.000000)" stroke="#FFFFFF" stroke-width="0.75">
            <g id="Product-Stewardship" transform="translate(920.333333, 15.000000)">
                <g id="Icon" transform="translate(0.333333, 0.000000)">
                    <path d="M0.0487012987,15 C0.0487012987,6.7425974 6.7425974,0.0487012987 15,0.0487012987 C23.2574026,0.0487012987 29.9512987,6.7425974 29.9512987,15 C29.9512987,23.2574026 23.2574026,29.9512987 15,29.9512987 C6.7425974,29.9512987 0.0487012987,23.2574026 0.0487012987,15 Z M8.34974026,16.1006494 L8.34974026,13.9511688 C8.34974026,13.3840909 8.13662338,12.8733117 7.57285714,12.8096104 C6.90623377,12.735 6.46246753,13.253961 6.46246753,13.9016883 L6.46246753,18.2994156 C6.46246753,18.3261039 6.35337662,18.9697403 6.97636364,19.5927273 L8.90025974,21.5168182 C9.35376623,21.9701299 9.36896104,22.4066883 9.36935065,22.4218831 L9.36935065,22.6963636 C9.06623377,22.6963636 8.81941558,22.942987 8.81941558,23.2462987 L8.81941558,24.8949351 L9.36935065,24.8949351 L13.4918182,24.8949351 L13.4918182,23.2462987 C13.4918182,22.942987 13.2451948,22.6967532 12.9420779,22.6963636 L12.9420779,21.1671429 C12.9420779,20.5357792 12.5172078,19.7996104 12.1168831,19.3992857 L9.46675325,16.7491558 C9.35220779,16.6346104 9.19694805,16.5703247 9.03545455,16.5703247 L8.89909091,16.5703247 C8.4,16.5703247 7.99519481,16.9749351 7.99519481,17.4746104 L7.99519481,17.6357143 C7.99519481,17.7814286 8.05266234,17.9211039 8.1561039,18.0241558 L9.99935065,19.8677922 L8.34974026,16.1006494 Z M9.36935065,22.6985065 L12.9420779,22.6985065 L9.36935065,22.6985065 Z M21.5719481,16.1006494 L21.5719481,13.9511688 C21.5719481,13.3840909 21.7852597,12.8733117 22.3494156,12.8096104 C23.0154545,12.735 23.4596104,13.253961 23.4596104,13.9016883 L23.4596104,18.2994156 C23.4596104,18.3261039 23.5687013,18.9697403 22.9459091,19.5927273 L21.022013,21.5168182 C20.5683117,21.9701299 20.5531169,22.4066883 20.5527273,22.4218831 L20.5527273,22.6963636 C20.856039,22.6963636 21.1024675,22.942987 21.1024675,23.2462987 L21.1024675,24.8949351 L20.5527273,24.8949351 L16.4302597,24.8949351 L16.4302597,23.2462987 C16.4302597,22.942987 16.6768831,22.6967532 16.9801948,22.6963636 L16.9801948,21.1671429 C16.9801948,20.5357792 17.4042857,19.7996104 17.8048052,19.3992857 L20.4553247,16.7491558 C20.5694805,16.6346104 20.7245455,16.5703247 20.8866234,16.5703247 L21.0227922,16.5703247 C21.5220779,16.5703247 21.9270779,16.9749351 21.9270779,17.4746104 L21.9270779,17.6357143 C21.9270779,17.7814286 21.8688312,17.9211039 21.765974,18.0241558 L19.9229221,19.8677922 L21.5719481,16.1006494 Z M20.5527273,22.6985065 L16.9801948,22.6985065 L20.5527273,22.6985065 Z" id="Stroke-1"></path>
                    <path d="M12.6566299,6.53682468 C12.3346169,6.53682468 12.0724091,6.79903247 12.0724091,7.12104545 C12.0724091,7.44325325 12.3346169,7.70526623 12.6566299,7.70526623 C12.9788377,7.70526623 13.2408506,7.44325325 13.2408506,7.12104545 C13.2408506,6.79903247 12.9788377,6.53682468 12.6566299,6.53682468 Z M10.5145519,5.75818831 C10.2998766,5.75818831 10.1253312,5.93253896 10.1253312,6.14740909 C10.1253312,6.36227922 10.2998766,6.53682468 10.5145519,6.53682468 C10.7294221,6.53682468 10.9039675,6.36227922 10.9039675,6.14740909 C10.9039675,5.93253896 10.7294221,5.75818831 10.5145519,5.75818831 Z M12.0724091,4.19994156 C11.8579286,4.19994156 11.6829935,4.37487662 11.6829935,4.58974675 C11.6829935,4.80422727 11.8579286,4.97896753 12.0724091,4.97896753 C12.2872792,4.97896753 12.4620195,4.80422727 12.4620195,4.58974675 C12.4620195,4.37487662 12.2872792,4.19994156 12.0724091,4.19994156 Z M11.3937078,7.70526623 L10.8038377,7.70526623 L11.3937078,7.70526623 Z M10.6148766,4.97896753 L10.0252013,4.97896753 L10.6148766,4.97896753 Z M13.7303961,5.75818831 L13.140526,5.75818831 L13.7303961,5.75818831 Z M13.3343571,15.532539 L11.4396818,15.532539 C10.7085779,15.532539 10.1134481,14.9376039 10.1134481,14.2063052 L10.1134481,10.6573442 L9.35585065,9.33111039 L9.35585065,8.7126039 L14.6602013,8.7126039 L14.6602013,14.2063052 C14.6602013,14.9376039 14.065461,15.532539 13.3343571,15.532539 Z M10.1732532,11.7377338 L11.1202013,11.7377338 L10.1732532,11.7377338 Z M10.1732532,10.7964351 L13.3117597,10.7964351 L10.1732532,10.7964351 Z M10.1732532,13.6201364 L11.1203961,13.6201364 L10.1732532,13.6201364 Z M10.1732532,12.6790325 L11.1203961,12.6790325 L10.1732532,12.6790325 Z M10.1732532,14.5614351 L11.1203961,14.5614351 L10.1732532,14.5614351 Z" id="Stroke-3"></path>
                    <path d="M17.167013,4.61701948 L17.167013,9.04416234 L20.1633117,13.3246169 L20.1633117,13.3920195 C20.1633117,14.572539 19.2033117,15.532539 18.0231818,15.532539 L14.5985065,15.532539 C13.4185714,15.532539 12.4581818,14.572539 12.4581818,13.3920195 L12.4581818,13.3246169 L15.4548701,9.04416234 L15.4548701,4.61701948" id="Stroke-5"></path>
                </g>
            </g>
        </g>
    </g>
</svg>